PathFileType	4	(X/Y/Z)	C:\Users\°ÂÌØÂü\Desktop\20210112\bx_y_5_1801-Unnamed.trc
DataRate	CameraRate	NumFrames	NumMarkers	Units	OrigDataRate	OrigDataStartFrame	OrigNumFrames
50.00	50.00	       6	0	mm	50.00	1	       558
Frame#	Time	
		

1	0.000	-705.86603	-71.19239	1556.03235	-599.36908	-3.91229	800.32739	-644.87640	280.84290	874.15784	-696.29688	275.80212	745.95020	-729.41785	252.27657	637.53265	-677.38104	19.76584	520.63507	-734.88678	246.98047	574.58051	-776.89563	257.05017	502.14624	-683.00391	203.99263	532.71802	-716.15479	79.55383	216.24278	-664.03400	-66.01108	163.92949	-711.91669	152.70615	216.85545	-624.00183	-77.27056	160.47813	-771.02881	223.50943	204.55223	-882.61194	296.15863	144.60854	-673.88141	56.94543	156.38545	-601.96582	19.77916	165.69414	-559.51978	-43.06852	162.77698	-674.39984	172.10583	157.69983	-594.03180	223.09129	173.74200	-665.82605	299.18365	160.11908	-628.23077	307.18689	161.82552	-560.82977	262.25418	165.53723	-528.00720	304.32831	146.43713	-618.55090	124.58813	1842.77747	-733.44458	284.66708	1539.96521	-517.70648	-72.26504	142.88515	-796.31390	173.44501	183.16887	-766.85864	-3.51603	205.73122	-794.13861	57.58670	174.36082	-800.83649	99.80912	1042.97681	-772.62360	-33.38573	486.60986	-875.97235	-78.75332	141.32440	-617.89484	105.15608	1441.77112	-604.19330	-5.58669	1048.16345	-693.96460	-49.35360	705.40710	-713.40601	-26.90817	615.85413	-727.61829	-24.49280	567.00458	-591.57202	220.24294	1067.53284	-593.76978	212.01990	821.53082	-703.89282	81.54768	573.31915	
2	0.020	-705.41638	-71.06828	1555.90393	-599.18103	-3.82486	800.12573	-644.66565	280.54120	874.01300	-696.29688	275.80212	745.95020	-729.26752	252.41676	637.47162	-677.38135	19.97919	520.61047	-734.87860	246.96135	574.71368	-776.79034	257.17548	502.02142	-682.90271	204.12309	532.54193	-716.37146	79.65688	216.20717	-664.05713	-66.01737	163.95218	-712.01025	152.73659	216.76074	-623.97589	-77.07092	160.41405	-770.90118	223.63042	204.25244	-882.34692	295.95273	144.61353	-673.75647	56.84942	156.49113	-601.93860	19.74874	165.49147	-559.49628	-43.24607	162.69170	-674.41254	172.03157	157.64137	-594.14893	222.97636	173.53856	-665.87677	299.18872	160.20036	-628.25665	307.21957	161.77203	-560.86414	262.41400	165.76378	-528.08679	304.23312	146.60699	-618.54236	124.56428	1842.94946	-733.34534	284.76968	1539.86438	-517.79407	-72.54756	142.63760	-796.13989	173.33545	182.99461	-766.92212	-3.43472	205.86476	-794.24060	57.44821	174.76012	-800.82520	99.94485	1043.23352	-772.50867	-33.51699	486.67136	-875.97748	-78.88188	141.21204	-617.45862	104.95712	1441.85022	-604.04663	-5.80123	1048.18372	-693.80951	-49.17188	705.43353	-713.21802	-27.08383	615.82611	-727.61481	-24.50556	566.90674	-591.57202	220.24294	1067.53284	-593.87329	211.83257	821.27588	-703.61444	81.29240	573.30267	
3	0.040	-705.30109	-70.97392	1555.89844	-599.18103	-3.82486	800.12573	-644.42126	280.59155	874.24011	-696.29688	275.80212	745.95020	-729.00458	252.43658	637.49097	-677.38104	19.76584	520.63507	-734.89203	246.94081	574.80078	-776.84088	257.09506	502.05399	-682.86407	204.08026	532.54401	-716.15479	79.55383	216.24278	-664.05707	-66.05329	163.86697	-711.72534	152.71468	216.52879	-624.03906	-77.06188	160.27252	-770.95288	223.62350	204.46631	-882.47791	296.04785	144.61418	-673.75647	56.84942	156.49113	-601.88300	19.75837	165.57100	-559.52698	-43.08969	162.72348	-674.53479	172.06931	157.49554	-594.37354	222.54155	173.40686	-665.84735	299.23624	160.09250	-628.34106	307.30515	161.82634	-560.86536	262.38974	165.59447	-528.11536	304.45233	146.53067	-618.48474	124.50142	1842.98718	-732.79675	284.83249	1539.79614	-517.75537	-72.41229	142.68401	-796.20477	173.37964	183.14748	-766.68439	-3.59525	205.76810	-794.05780	57.32739	174.74666	-800.46875	99.91851	1043.05432	-772.54132	-33.41309	486.75061	-875.97748	-78.88188	141.21204	-617.41528	104.95062	1441.74438	-603.54840	-5.86034	1048.25659	-693.58978	-49.45163	705.56494	-712.89996	-26.99695	615.75665	-727.53674	-24.40916	566.72870	-591.42523	220.23659	1067.31616	-593.67279	211.70010	821.03046	-703.50427	81.35757	573.15039	
4	0.060	-704.96442	-70.89866	1555.96021	-599.24548	-3.27468	800.64874	-644.28882	280.57959	874.05859	-696.19720	275.70590	745.71442	-729.04596	252.18292	637.20258	-677.29492	19.62765	520.76959	-734.78113	246.85234	574.71411	-776.78235	257.13382	502.17120	-682.86603	204.02774	532.64185	-716.25757	79.73360	216.20702	-664.22119	-66.12238	164.02962	-711.85107	152.65305	216.63936	-624.00134	-77.20859	160.58026	-771.04346	223.51497	204.54918	-882.45056	295.99521	144.63437	-673.88141	56.94543	156.38545	-601.99561	19.81910	165.63452	-559.51978	-43.06852	162.77698	-674.41254	172.03157	157.64137	-594.08301	222.93689	173.59389	-665.84735	299.23624	160.09250	-628.42102	307.31693	161.73164	-560.84094	262.33368	165.50507	-528.17798	304.28409	146.29510	-618.42181	124.41154	1843.15393	-732.19647	284.88290	1539.82190	-517.66534	-72.52272	142.87009	-796.18811	173.30966	183.09869	-766.80310	-3.52764	205.82510	-794.15894	57.69262	174.56889	-800.01062	99.95175	1043.10779	-772.47925	-33.50694	486.74091	-875.97589	-78.81084	141.28232	-616.90363	105.40946	1441.69373	-603.47400	-5.81931	1048.12219	-693.50916	-49.26729	705.59094	-713.03119	-27.05188	615.85669	-727.42963	-24.48560	566.97205	-591.05139	220.29234	1067.10266	-593.56085	211.64024	820.88995	-703.90479	81.40990	573.32037	
5	0.080	-704.69507	-70.83679	1555.89172	-599.08496	-3.35489	800.62805	-644.21136	280.43607	874.03180	-696.20374	275.64984	745.77032	-729.16333	252.10562	637.39807	-677.38104	19.76584	520.63507	-734.87653	246.73708	574.79211	-776.69196	257.06235	502.00443	-682.78229	204.00969	532.53027				-664.06787	-66.14973	163.81577	-711.88446	152.79822	216.65019	-623.99231	-77.02946	160.49756	-770.98822	223.43546	204.47856	-882.50494	296.04492	144.58937	-673.88141	56.94543	156.38545	-601.84131	19.84192	165.75064	-559.49628	-43.24607	162.69170	-674.39600	171.95979	157.50529	-594.08380	222.98846	173.63216	-665.81036	299.18289	159.96715	-628.25269	307.26666	161.92989	-560.84570	262.26761	165.58687	-528.02301	304.31677	146.40936	-618.69110	124.14325	1843.43481	-731.74896	284.76682	1539.97144	-517.71735	-72.50307	142.78467	-796.24530	173.35060	183.06511	-766.80310	-3.52764	205.82510	-794.00946	57.38002	174.45927	-799.94489	99.95482	1043.13684	-772.46576	-33.55902	486.74240	-875.94830	-79.04633	141.53731	-616.73669	105.47519	1441.39233	-603.22076	-5.91488	1047.88696	-693.49597	-49.34603	705.57336	-712.64752	-26.92768	615.87122	-727.49622	-24.37762	566.88348	-590.49420	220.07581	1067.18921	-593.46399	211.74069	820.83923	-703.71729	81.30011	573.25354	-716.20288	79.60886	216.20522	-645.67975	-77.45264	866.43555	
6	0.100	-704.14880	-70.55142	1555.95068	-599.02936	-3.38071	800.47565	-644.10406	280.34702	874.05237	-695.91443	275.35818	745.30988	-729.13721	252.15080	637.30505	-677.38104	19.76584	520.63507	-734.83820	246.73543	574.64685	-776.95978	256.91864	502.17560	-682.78229	204.00969	532.53027				-664.04480	-66.10752	163.87830	-711.72968	152.62567	216.86053	-624.01202	-77.08703	160.44508	-771.02759	223.57703	204.47131	-882.48743	296.05096	144.59955	-673.75647	56.84942	156.49113	-601.84985	19.62752	165.64014	-559.38330	-43.12959	162.80029	-674.53180	171.92264	157.52246	-594.07013	222.98343	173.71964	-665.84735	299.23624	160.09250	-628.25269	307.26666	161.92989	-560.75854	262.46063	165.55234	-528.16968	304.37299	146.26947	-618.97742	124.40517	1843.72339	-731.50934	284.86670	1539.85962	-517.70410	-72.65799	142.82368	-795.99695	173.38875	182.96805	-766.80664	-3.50020	205.77359	-793.71826	57.21377	174.31143	-799.62152	99.90472	1043.19019	-772.50867	-33.51699	486.67136	-875.65533	-78.94249	141.29453	-615.89233	105.40946	1441.49524	-603.22076	-5.91488	1047.88696	-693.49597	-49.34603	705.57336	-712.74634	-27.27126	615.92938	-727.51758	-24.44079	566.79889	-590.05933	219.80505	1066.87964	-593.40936	211.64494	820.90967	-703.61444	81.29240	573.30267	-716.27094	79.36084	215.95705	-645.47363	-77.35943	866.03961	
